/* XPM */
static char *result[] = {
/* columns rows colors chars-per-pixel */
"49 49 179 2 ",
"   c #84620D",
".  c #8C670E",
"X  c #8F680E",
"o  c #8E690E",
"O  c #8E680F",
"+  c #966E10",
"@  c #9A6F10",
"#  c #987010",
"$  c #997111",
"%  c #9A7010",
"&  c #9B7110",
"*  c #9A7111",
"=  c #9C7111",
"-  c #9C7311",
";  c #9E7211",
":  c #A97C13",
">  c #A97D13",
",  c #B28315",
"<  c #B28415",
"1  c #B28615",
"2  c #B68616",
"3  c #B98917",
"4  c #BB8916",
"5  c #BA8A16",
"6  c #BF8F17",
"7  c #C18F18",
"8  c #C09018",
"9  c #CD991A",
"0  c #CE9B1A",
"q  c #CF9C1A",
"w  c #D09A1A",
"e  c #D19B1A",
"r  c #D49F1B",
"t  c #D69E1B",
"y  c #D69F1B",
"u  c #D7A01C",
"i  c #E7A91E",
"p  c #EBAE1F",
"a  c #ECAE1F",
"s  c #ECAF1F",
"d  c #E9AB20",
"f  c #EAAD20",
"g  c #EAAC21",
"h  c #ECAC20",
"j  c #ECAD20",
"k  c #EDAE20",
"l  c #ECAF20",
"z  c #EEAE20",
"x  c #F3B120",
"c  c #F1B221",
"v  c #F4B121",
"b  c #F6B521",
"n  c #F7B722",
"m  c #F8B622",
"M  c #F8B722",
"N  c #F9B722",
"B  c #F9B822",
"V  c #F9B922",
"C  c #FAB822",
"Z  c #FAB922",
"A  c #FBBB22",
"S  c #FCBB22",
"D  c #FBBC22",
"F  c #FBBD22",
"G  c #FBBC23",
"H  c #FBBE23",
"J  c #FCBD23",
"K  c #FFBE23",
"L  c #FFBF23",
"P  c #FFBF24",
"I  c #FEC023",
"U  c #FFC023",
"Y  c #FFC024",
"T  c #FFC224",
"R  c #FFC324",
"E  c #FBC426",
"W  c #FFC424",
"Q  c #FFC524",
"!  c #FFC525",
"~  c #FFC625",
"^  c #FFC725",
"/  c #FFC427",
"(  c #FFC527",
")  c #FFCA25",
"_  c #FFCB26",
"`  c #FFCB27",
"'  c #FFCC26",
"]  c #FFCD27",
"[  c #FFCE26",
"{  c #FFCF26",
"}  c #FFCE27",
"|  c #FFCF27",
" . c #FFC728",
".. c #FFD027",
"X. c #FFD028",
"o. c #FFD128",
"O. c #FFD129",
"+. c #FFD229",
"@. c #FFD12B",
"#. c #FFD22A",
"$. c #FFD32A",
"%. c #FFD52B",
"&. c #FFD22C",
"*. c #FFD32C",
"=. c #FFD637",
"-. c #FFD639",
";. c #FFD63A",
":. c #FFD73A",
">. c #FFD63B",
",. c #FFD73B",
"<. c #FFD63C",
"1. c #FFD73C",
"2. c #FFD73D",
"3. c #FFD73E",
"4. c #FFD73F",
"5. c #FFD541",
"6. c #FFD740",
"7. c #FFD741",
"8. c #FFD642",
"9. c #FFD743",
"0. c #FFD744",
"q. c #FFD745",
"w. c #FFD746",
"e. c #FFDA40",
"r. c #FFDA41",
"t. c #FFD842",
"y. c #FFD845",
"u. c #FFD846",
"i. c #FFD946",
"p. c #FFD947",
"a. c #FFD948",
"s. c #FFD949",
"d. c #FFD94A",
"f. c #FFD94B",
"g. c #FFDA4B",
"h. c #FFD94D",
"j. c #FFDA4C",
"k. c #FFDA4D",
"l. c #FFD94E",
"z. c #FFD94F",
"x. c #FFDA4F",
"c. c #FFDA51",
"v. c #FFDB51",
"b. c #FFDA54",
"n. c #FFDA55",
"m. c #FFDB55",
"M. c #FFDA56",
"N. c #FFDB57",
"B. c #FFDA59",
"V. c #FFDA5A",
"C. c #FFDB5E",
"Z. c #FFDB5F",
"A. c #FFDC5C",
"S. c #FFDB61",
"D. c #FFDC61",
"F. c #FFDC63",
"G. c #FFDB66",
"H. c #FFDB67",
"J. c #FFDD64",
"K. c #FFDC66",
"L. c #FFDD67",
"P. c #FFDC6A",
"I. c #FFDD6B",
"U. c #FFDC6C",
"Y. c #FFDC6D",
"T. c #FFDD6E",
"R. c #FFDD6F",
"E. c #FFDD70",
"W. c #FFDD71",
"Q. c #FFDF71",
"!. c #FFDD72",
"~. c #FFDF73",
"^. c #FFDE77",
"/. c #FFDF78",
"(. c #025AAD",
"). c #005AB3",
"_. c #7B66A1",
"`. c #7D65A1",
"'. c #7F68A3",
/* pixels */
"'.'.'.`.`.`.`.`.`.`.`.`.`.`.`.'.'.'._._._._._._._._._._._._._.'.'.'.`.`.`.`.`.`.`.`.`.`.`.`.'.'.'.",
").'.'.`.`.`.`.`.`.`.`.`.`.`.`.'.'.'._._._._._._._._._._._._._.'.'.'.`.`.`.`.`.`.`.`.`.`.`.`.'.'.).",
").).).(.(.( ( o o o o * * * 5 5 5 5 9 9 9 i i b b R R ,.,.,.c.c.c.c.=.=.=._ _ _ _ K K (.(.(.).).).",
").).(.(.(./ / X X X X $ $ $ 4 4 4 4 9 9 9 d d n n ! ! ,.,.,.b.b.b.b.-.-.-.' ' ' ' K K (.(.(.(.).).",
").(.(.(.(./ / X X X X $ $ $ 4 4 4 4 9 9 9 d d n n ! ! ,.,.,.b.b.b.b.-.-.-.' ' ' ' K K (.(.(.(.(.).",
"(.(.(.(.(./ / o o o o $ $ $ 4 4 4 4 9 9 9 d d M M ! ! 2.2.2.M.M.M.M.:.:.:.' ' ' ' L L ).(.(.(.(.(.",
"(.(.(.(.)./ / X X X X $ $ $ 4 4 4 4 9 9 9 d d n n ! ! 2.2.2.n.n.n.n.>.>.>.[ [ [ [ U U ).).(.(.(.(.",
"(.(.(.).)./ / X X X X $ $ $ 4 4 4 4 9 9 9 d d n n ! ! 2.2.2.n.n.n.n.>.>.>.[ [ [ [ U U ).).).(.(.(.",
"(.(.).).)./ / o o o o $ $ $ 4 4 4 4 9 9 9 d d m m R R 3.3.3.m.m.m.m.>.>.>.[ [ [ [ U U ).).).).(.(.",
"(.).).).).( ( o o o o & & & 4 4 4 4 9 9 9 g g N N W W 3.3.3.m.m.m.m.>.>.>.[ [ [ [ U U ).).).).).(.",
").).).).)./ / o o o o & & & 4 4 4 4 0 0 0 g g N N W W 3.3.3.N.N.N.N.>.>.>.[ [ [ [ U U (.).).).).).",
").).).).(./ / o o o o & & & 4 4 4 4 0 0 0 g g N N W W 3.3.3.N.N.N.N.>.>.>.[ [ [ [ U U (.(.).).).).",
").).).(.(.( ( o o o o % % % 4 4 4 4 0 0 0 f f B B ! ! 3.3.3.B.B.B.B.;.;.;.{ { { { U U (.(.(.).).).",
").).(.(.(./ / o o o o @ @ @ 4 4 4 4 0 0 0 h h C C ~ ~ 3.3.3.N.N.N.N.<.<.<.{ { { { T T (.(.(.(.).).",
").(.(.(.(./ / o o o o @ @ @ 4 4 4 4 0 0 0 h h C C ~ ~ 3.3.3.N.N.N.N.<.<.<.{ { { { T T (.(.(.(.(.).",
"(.(.(.(.(.( ( o o o o % % % 5 5 5 5 0 0 0 f f V V ~ ~ 6.6.6.V.V.V.V.1.1.1.........T T ).(.(.(.(.(.",
"(.(.(.(.)./ / X X X X # # # 4 4 4 4 0 0 0 f f V V ~ ~ 6.6.6.A.A.A.A.2.2.2.o.o.o.o.T T ).).(.(.(.(.",
"(.(.(.).)./ / X X X X # # # 4 4 4 4 0 0 0 f f V V ~ ~ 6.6.6.A.A.A.A.2.2.2.o.o.o.o.T T ).).).(.(.(.",
"(.(.).).).( ( o o o o # # # 5 5 5 5 w w w f f V V ^ ^ t.t.t.A.A.A.A.3.3.3.o.o.o.o.T T ).).).).(.(.",
"(.).).).).( ( o o o o # # # 5 5 5 5 w w w h h Z Z ^ ^ t.t.t.C.C.C.C.6.6.6.o.o.o.o.W W ).).).).).(.",
").).).).)./ / o o o o # # # 4 4 4 4 q q q j j Z Z ^ ^ y.y.y.Z.Z.Z.Z.4.4.4.X.X.X.X.W W (.).).).).).",
").).).).(./ / o o o o # # # 4 4 4 4 q q q j j Z Z ^ ^ y.y.y.Z.Z.Z.Z.4.4.4.X.X.X.X.W W (.(.).).).).",
").).).(.(.( ( o o o o % % % 4 4 4 4 q q q a a A A ) ) y.y.y.Z.Z.Z.Z.6.6.6.o.o.o.o.W W (.(.(.).).).",
").).(.(.(./ / o o o o # # # 4 4 4 4 q q q k k S S ) ) w.w.w.D.D.D.D.6.6.6.O.O.O.O.W W (.(.(.(.).).",
").(.(.(.(./ / o o o o # # # 4 4 4 4 q q q k k S S ) ) w.w.w.D.D.D.D.6.6.6.O.O.O.O.W W (.(.(.(.(.).",
"(.(.(.(.(.( ( o o o o # # # 4 4 4 4 q q q p p A A ) ) p.p.p.S.S.S.S.9.9.9.+.+.+.+.Q Q ).(.(.(.(.(.",
"(.(.(.(.).( ( o o o o # # # 4 4 4 4 q q q p p G G ` ` s.s.s.F.F.F.F.9.9.9.#.#.#.#.W W ).).(.(.(.(.",
"(.(.(.).).( ( o o o o # # # 4 4 4 4 q q q p p G G ` ` s.s.s.F.F.F.F.9.9.9.#.#.#.#.W W ).).).(.(.(.",
"(.(.).).)./ / o o o o # # # 4 4 4 4 q q q p p D D ' ' s.s.s.J.J.J.J.q.q.q.#.#.#.#.Q Q ).).).).(.(.",
"(.).).).).( ( o o o o # # # 4 4 4 4 q q q p p D D ' ' f.f.f.G.G.G.G.y.y.y.#.#.#.#.Q Q ).).).).).(.",
").).).).)./ / X X X X # # # 4 4 4 4 q q q l l F F ' ' l.l.l.K.K.K.K.u.u.u.#.#.#.#.Q Q (.).).).).).",
").).).).(./ / X X X X # # # 4 4 4 4 q q q l l F F ' ' l.l.l.K.K.K.K.u.u.u.#.#.#.#.Q Q (.(.).).).).",
").).).(.(.( ( o o o o # # # 5 5 5 5 e e e z z J J ] ] l.l.l.K.K.K.K.u.u.u.#.#.#.#.Q Q (.(.(.).).).",
").).(.(.(.( ( o o o o # # # 4 4 4 4 q q q l l H H } } z.z.z.L.L.L.L.a.a.a.@.@.@.@.~ ~ (.(.(.(.).).",
").(.(.(.(.( ( o o o o # # # 4 4 4 4 q q q l l H H } } z.z.z.L.L.L.L.a.a.a.@.@.@.@.~ ~ (.(.(.(.(.).",
"(.(.(.(.(.( ( o o o o @ @ @ 4 4 4 4 q q q l l H H } } x.x.x.I.I.I.I.d.d.d.*.*.*.*.~ ~ ).(.(.(.(.(.",
"(.(.(.(.)./ / O O O O # # # 4 4 4 4 q q q l l H H [ [ v.v.v.Y.Y.Y.Y.g.g.g.&.&.&.&.~ ~ ).).(.(.(.(.",
"(.(.(.).)./ / O O O O # # # 4 4 4 4 q q q l l H H [ [ v.v.v.Y.Y.Y.Y.g.g.g.&.&.&.&.~ ~ ).).).(.(.(.",
"(.(.).).). . .. . . . + + + 3 3 3 3 q q q s s H H [ [ v.v.v.T.T.T.T.k.k.k.&.&.&.&.^ ^ ).).).).(.(.",
"(.).).).).E E O O O O @ @ @ 4 4 4 4 q q q l l H H [ [ v.v.v.W.W.W.W.h.h.h.&.&.&.&.^ ^ ).).).).).(.",
").).).).)./ / O O O O @ @ @ 4 4 4 4 q q q l l H H } } r.r.r.H.H.H.H.d.d.d.*.*.*.*.Q Q (.).).).).).",
").).).).(./ / O O O O @ @ @ 4 4 4 4 q q q l l H H } } e.e.e.G.G.G.G.d.d.d.*.*.*.*.Q Q (.(.).).).).",
").).).(.(./ /                             2 2 2 2 2 2 2 2 2 2 2 2 2 2 2 2 2 2 2 2 2 2 (.(.(.).).).",
").).6.6.6., , - - - - : : : 7 7 7 7 t t t c c I I [ [ f.f.f.Q.Q.Q.Q.P.P.P.7.7.7.7.+.+.} } } } ).).",
").(.6.6.6., , - - - - : : : 7 7 7 7 t t t c c I I [ [ f.f.f.Q.Q.Q.Q.P.P.P.7.7.7.7.+.+.} } } } (.).",
"(.(.6.6.6.< < - - - - : : : 7 7 7 7 r r r x x L L [ [ j.j.j.~.~.~.~.U.U.U.8.8.8.8.#.#.} } } } (.(.",
"(.(.6.6.6.< < & & & & : : : 8 8 8 8 u u u x x Y Y | | j.j.j.^.^.^.^.R.R.R.9.9.9.9.$.$.[ [ [ } (.(.",
"(.(.6.6.6.< < = = = = : : : 8 8 8 8 u u u x x Y Y | | j.j.j.^.^.^.^.E.E.E.0.0.0.0.$.$.[ [ [ } (.(.",
"(.(.5.5.5.1 1 ; ; ; ; > > > 6 6 6 6 y y y v v P P } } f.f.f././././.!.!.!.i.i.i.i.%.%.{ { { } (.(."
};
