/* XPM */
static char *_ff353831c844367b062923a2574ab72tuK6KZCWsooccb6D[] = {
/* columns rows colors chars-per-pixel */
"49 49 115 2 ",
"   c #005AB3",
".  c #025CB0",
"X  c #FFC5BF",
"o  c #FEC1C0",
"O  c #FEC2C2",
"+  c #FEC5C0",
"@  c #FDC7C3",
"#  c #FEC3C5",
"$  c #FFC6C5",
"%  c #FEC9C4",
"&  c #FDCBC4",
"*  c #FFC9C7",
"=  c #FECDC7",
"-  c #FEC1C9",
";  c #FFC3CB",
":  c #FFC5CB",
">  c #FEC5CC",
",  c #FCC7CF",
"<  c #FFC9C9",
"1  c #FDCAC9",
"2  c #FFCFC8",
"3  c #FECACC",
"4  c #FFCDCC",
"5  c #FED1CA",
"6  c #FFD3CA",
"7  c #FED7CE",
"8  c #E0CCDF",
"9  c #FFC2D2",
"0  c #FFC7D2",
"q  c #FFC8D0",
"w  c #FDCCD0",
"e  c #FEC9D5",
"r  c #FCCAD4",
"t  c #FECAD6",
"y  c #F9CCD6",
"u  c #FECFD5",
"i  c #F5CCDC",
"p  c #F4CEDD",
"a  c #F8CEDA",
"s  c #FDCDD9",
"d  c #FFCCD9",
"f  c #FED0D3",
"g  c #FFD2D2",
"h  c #FED7D0",
"j  c #FED5D3",
"k  c #FDD7D3",
"l  c #FDD4D5",
"z  c #FEDBD5",
"x  c #FFD9D6",
"c  c #FDDCD6",
"v  c #F6D0DF",
"b  c #FAD2DB",
"n  c #FED4D8",
"m  c #FBD3DE",
"M  c #FED3DC",
"N  c #FFD4DD",
"B  c #FDDAD8",
"V  c #FFD9DD",
"C  c #FFDDDC",
"Z  c #FFDEDD",
"A  c #FEE5D3",
"S  c #FEE4D7",
"D  c #FEE8D9",
"F  c #FDEADA",
"G  c #FFE9DC",
"H  c #FEF2DE",
"J  c #E1CBE1",
"K  c #E2CEE0",
"L  c #EBD2E7",
"P  c #F6D2E0",
"I  c #F3D4E3",
"U  c #F2D5E7",
"Y  c #FFD1E1",
"T  c #FDD2E1",
"R  c #FDD1E2",
"E  c #FCD7E1",
"W  c #FED4E2",
"Q  c #FDD4E7",
"!  c #FDDDE0",
"~  c #FAD9E6",
"^  c #FCD8E4",
"/  c #FDD9E5",
"(  c #FDD7E8",
")  c #FFD7E9",
"_  c #F0DFE9",
"`  c #FEDBEF",
"'  c #FBDCEC",
"]  c #FADFED",
"[  c #FDDDEC",
"{  c #FDDEEE",
"}  c #F3DCF0",
"|  c #F9DCF0",
" . c #FFDFF3",
".. c #FDE3E4",
"X. c #FFE2E4",
"o. c #FFE2E7",
"O. c #FEE3EA",
"+. c #FFE6EA",
"@. c #FFE1ED",
"#. c #FAE6ED",
"$. c #FFE5EE",
"%. c #FEE7EF",
"&. c #FEF7E3",
"*. c #FDE0F0",
"=. c #FCE7F0",
"-. c #FEE7F1",
";. c #FBE0F4",
":. c #FDE4F7",
">. c #FFE7FC",
",. c #FFE8FA",
"<. c #FDEFFE",
"1. c #FEF2FC",
"2. c #FFF4FE",
"3. c #FFF8FE",
"4. c #FDFDFD",
/* pixels */
"          . .                     . .                       . .                     . .           ",
"        . . . .                 . . . .                   . . . .                 . . . .         ",
"      . . . . . .             . . . . . .               . . . . . .             . . . . . .       ",
"    . . . . . . . .         . . . . . . . .           . . . . . . . .         . . . . . . . .     ",
"  . . . . . . . . . .     . . . . . . . . . .       . . . . . . . . . .     . . . . . . . . . .   ",
". . . . .     . . . . . . . . . .     . . . . . . . . . . .     . . . . . . . . . .     . . . . . ",
". . . .         . . . . . . . .         . . . . . . . . .         . . . . . . . .         . . . . ",
". . .             . . . . . .             . . . . . . .             . . . . . .             . . . ",
". .                 . . . .                 . . . . .                 . . . .                 . . ",
".                     . .                     . . .                     . .                     . ",
"          . .                     . .                       . .                     . .           ",
"        . . . .                 . . . .                   . . . .                 . . . .         ",
"      . . . . . .             . . . . . .               . . . . . .             . . . . . .       ",
"    . . . . . . . .         . . . . . . . .           . . . . . . . .         . . . . . . . .     ",
"  . . . . . . . . . .     . . . . . . . . . .       . . . . . . . . . .     . . . . . . . . . .   ",
". . . . .     . . . . . . . . . .     . . . . . . . . . . .     . . . . . . . . . .     . . . . . ",
". . . .         . . . . . . . .         . . . . . . . . .         . . . . . . . .         . . . . ",
". . .             . . . . . .             . . . . . . .             . . . . . .             . . . ",
". .                 . . . .                 . . . . .                   . . .                 . . ",
".                     . .               l B n n N n ^ ^ ^ ^             . .                     . ",
"          . .                     . .   B l n n n N E E ^ ^ . .                     . .           ",
"        . . . .                 B B B l l l l l V V m N b b ^ ^ #.#.              . . . .         ",
"      . . . . . .             . B B x x l g l l V V n N b b ^ ^ #.#.            . . . . . .       ",
"    . . . . . . . .         C z x x l j C C ....+.+.%.$.$.$.~ ~ I P ] ]       . . . . . . . .     ",
"  . . . . . . . . . .     . C x x x j j C C X.X.+.+.=.$.$.=.^ ( I I ] ]     . . . . . . . . . .   ",
". . . . .     . . . . . z z z C h h k j C C X.X.+.+.=.=.=.=.@.@.' ' U U _ _ . . . .     . . . . . ",
". . . .         . . . . C c z z h h l x S ! O.X.+.+.#.=.=.%.@.@.' ' U U _ _   . .         . . . . ",
". . .           . . . . c c S S h h g l f B ! ! O...O.O.@.@.@.*.]  .:.' L L . .             . . . ",
". .                 . . x x S S h 7 7 g B l ! ! O.O.+.$.+.@.{ @.*.*.:.:.L L .                 . . ",
".                   j j &.&.G F j h 4 3 w w f f M b N N ~ ^ { { ,.,.<.<.} } L L                 . ",
"          . .       k j &.&.F F j 7 4 4 w w g u M M N N ^ ^ { { ,.,.<.<.} } L L     . .           ",
"        . . . .   . 6 6 &.&.F F 7 7 * * 3 3 3 4 y y a a P p { { <.<.3.3.<.1.8 K   . . . .         ",
"      . . . . . .   6 6 &.&.F F h h * * * 3 4 0 y r a a P P { { <.<.3.3.1.1.J 8 . . . . . .       ",
"    . . . . . . . . 7 7 H H S F 5 5 * * g 4 N f b b a b P p :. .2.2.4.4.3.4.J J . . . . . . .     ",
"  . . . . . . . . . h 7 H H F F 5 4 * 3 w w b f b b b a p P  .:.2.2.4.4.3.3.J K . . . . . . . .   ",
". . . . .     . . . 5 5 6 5 A A @ @ 1 4 f f l N N N N P p p :.:.2.2.4.4.3.2.K K . .     . . . . . ",
". . . .         . . 5 5 6 6 A A % X 4 * f f f N N N Y b p p :.:.2.2.4.4.3.3.8 K .         . . . . ",
". . .             . 5 5 5 = = & * * 3 * f w f f M M a N a p  .:.1.2.3.3.,.,.L L             . . . ",
". .                 5 5 5 5 = = 4 * 3 3 w w y w s N b a i p :.:.1.1.2.3.<.>.L L               . . ",
".                   . . % % % % # # + > > 3 r > > y a s Y Y ) ) :.:.,.,.] |                     . ",
"          . .           % & % % # * : : : : 0 q t w d d W Y ) ) :. .>.>.| |         . .           ",
"        . . . .         X X X X # # X # : : 3 > t t b a Y b ) ) | |  . .*.*.      . . . .         ",
"      . . . . . .       + + X X o + # # : : > > q t d d P R ) Q | |  . .*.:.    . . . . . .       ",
"    . . . . . . . .       . o o o # o + : # > > 0 0 d d R R ) Q ` ` Q W       . . . . . . . .     ",
"  . . . . . . . . . .     . o # o o o o > - > > 0 0 s d Y Y ( ) ` ` Y Q     . . . . . . . . . .   ",
". . . . .     . . . . . . . . . o o # * - > ; > 0 0 s s Y Y ) ) N Y     . . . . . .     . . . . . ",
". . . .         . . . . . . . . X X * * : : ; - 0 0 s s Y Y ( ( Y Y . . . . . . .         . . . . ",
". . .             . . . . . .           - # - - 0 0 t e 9 9     .   . . . . . .             . . . ",
". .                 . . . .             - - - - q q t t 9 9           . . . .                 . . "
};
