/* XPM */
static char *result[] = {
/* columns rows colors chars-per-pixel */
"49 49 10 1 ",
"  c #EDA600",
". c #FCBF2F",
"X c #FACA1E",
"o c #FFEB3B",
"O c #005AB3",
"+ c #025CB0",
"@ c #03A9F4",
"# c #00BBFF",
"$ c #F5F1C9",
"% c #F6F2CF",
/* pixels */
"OOOOO++OOOOOOOOOO++OOO     OOO++OOOOOOOOOO++OOOOO",
"OOOO++++OOOOOOOO++++O XXXXX O++++OOOOOOOO++++OOOO",
"OOO++++++OOOOOO+++++ XX   XX +++++OOOOOO++++++OOO",
"OO++++++++OOOO+++++ XX ooo XX +++++OOOO++++++++OO",
"O++++++++++OO++++++ X o$%$o X ++++++OO++++++++++O",
"+++++OO++++++++++   X o%%%o X   ++++++++++OO+++++",
"++++OOOO++++++++    X o$%$o X    ++++++++OOOO++++",
"+++OOOOOO+++++  XXX XX ooo XX XXX  +++++OOOOOO+++",
"++OOOOOOOO++  XXXXXX XX   XX XXXXXX  ++OOOOOOOO++",
"+OOOOOOOOOO XXXXXXXX. XXXXX .XXXXXXXX OOOOOOOOOO+",
"OOOOO++OOO XXXXXXXXXX.     .XXXXXXXXXX OOO++OOOOO",
"OOOO++++O XXXXXXXXXXXX.....XXXXXXXXXXXX O++++OOOO",
"OOO+++++ XXXXXXXXXXXXXXXXXXXXXXXXXXXXXXX +++++OOO",
"OO+++++ XXXXXXXXXXXXX       XXXXXXXXXXXXX +++++OO",
"O+++++ XXXXXXXXXXX             XXXXXXXXXXX +++++O",
"+++++ XXXXXXXXXXX     ###@@     XXXXXXXXXXX +++++",
"++++O XXXXXXXXXX   @   #@@   @   XXXXXXXXXX O++++",
"+++O XXXXXXXXXX  @@##   @   @##@  XXXXXXXXXX O+++",
"++OO XXXXXXXXX  @@####     @##@@#  XXXXXXXXX OO++",
"+OO XXXXXXXXXX @@####@@   @##@@### XXXXXXXXXX OO+",
"OOO XXXXXXXXX  @####@@     #@@####  XXXXXXXXX OOO",
"OOO XXXXXXXX  @####@@   @   @####@@  XXXXXXXX OOO",
"O  XXXXXXXXX   ###@@   @##   ###@@   XXXXXXXXX  O",
" # XXXXXXXX     #@@   @##@@   #@@     XXXXXXXX # ",
" # XXXXXXXX  #   @   @##@@##   @   @  XXXXXXXX # ",
" # XXXXXXXX  ##     @##@@####     @@  XXXXXXXX # ",
" @ XXXXXXXX  #@@   @##@@####@@   @@#  XXXXXXXX @ ",
" @ XXXXXXXX  @@     #@@####@@     ##  XXXXXXXX @ ",
" @ XXXXXXXX  @   #   @####@@   @   #  XXXXXXXX @ ",
" @ XXXXXXXXX    ###   ###@@   @@#     XXXXXXXX @ ",
"O  XXXXXXXXX   @##@@   #@@   @@###   XXXXXXXXX  O",
"OOO XXXXXXXX  @##@@##   @   @@###@@  XXXXXXXX OOO",
"OOO XXXXXXXXX  #@@####     @@###@@  XXXXXXXXX OOO",
"OO+ XXXXXXXXX  @@####@@   @@###@@@  XXXXXXXXX +OO",
"O+++ XXXXXXXXX  ####@@     ###@@@  .XXXXXXXX +++O",
"++++ XXXXXXXXX.  ##@@   @   #@@@  .XXXXXXXXX ++++",
"++++O XXXXXXXXX.   @   @@#   @   .XXXXXXXXX O++++",
"+++OO ..XXXXXXXX.     @@###     .XXXXXXXX.. OO+++",
"++OOOO ..XXXXXXXX.             .XXXXXXXX.. OOOO++",
"+OOOOOO ..XXXXXXXX...       ...XXXXXXXX.. OOOOOO+",
"OOOOO++O ..XXXXXXXXX.........XXXXXXXXX.. O++OOOOO",
"OOOO++++O ..XXXXXXXXXXXXXXXXXXXXXXXXX.. O++++OOOO",
"OOO++++++O ..XXXXXXXXXXXXXXXXXXXXXXX.. O++++++OOO",
"OO++++++++O ......XXXXXXXXXXXXX...... O++++++++OO",
"O++++++++++O  .......XXXXXXX.......  O++++++++++O",
"+++++OO+++++++  .................  +++++++OO+++++",
"++++OOOO++++++++    .........    ++++++++OOOO++++",
"+++OOOOOO++++++OOOOO         OOOOO++++++OOOOOO+++",
"++OOOOOOOO++++OOOOOOOO+++++OOOOOOOO++++OOOOOOOO++"
};
