/* XPM */
static char *result[] = {
/* columns rows colors chars-per-pixel */
"49 49 3 1 ",
"  c #7B66A1",
". c #7D65A1",
"X c #7F68A3",
/* pixels */
"XXX............XXX             XXX............XXX",
"XXX............XXX             XXX............XXX",
"XXX............XXX             XXX............XXX",
"XXXXXX            .........             XXXXXX...",
"XXXXXX            .........             XXXXXX...",
"XXXXXX            .........             XXXXXX...",
"XXX   ......   .........X   ...XXXXXX...   XXXXXX",
"XXX   ......   .........X   ...XXXXXX...   XXXXXX",
"XXX   ......   .........X   ...XXXXXX...   XXXXXX",
"XXX   XXXXXXXXX   XXX   XXXXXXX...............XXX",
"XXX   XXXXXXXXX   XXX   XXXXXXX...............XXX",
"XXX   XXXXXXXXX   XXX   XXXXXXX...............XXX",
"XXX      ......................                  ",
"XXX      ......................                  ",
"XXX      ......................                  ",
"......XXXXXXXXX..........XX.   XXXXXX......   XXX",
"......XXXXXXXXX..........XX.   XXXXXX......   XXX",
"......XXXXXXXXX..........XX.   XXXXXX......   XXX",
"      XXXXXX......      XXXXXXXXXXXXX            ",
"      XXXXXX......      XXXXXXXXXXXXX            ",
"      XXXXXX......      XXXXXXXXXXXXX            ",
"XXXXXXXXX   ......                         XXX...",
"XXXXXXXXX...................   ............XXXXXX",
"XXXXXXXXX...................   ............XXXXXX",
"XXXXXXXXX      .............XXXXXXXXXXXXXXX      ",
"XXX            ...XXXXXXXXXX                     ",
"XXX            ...XXXXXXXXXX                     ",
"XXX            ...XXXXXX....                     ",
"XXX...................XX    XXXXXX.........   XXX",
"XXX...................XX    XXXXXX.........   XXX",
"XXX...................XX    XXXXXX.........   XXX",
"XXXXXX   ......       ..    ...         XXXXXXXXX",
"XXXXXX   ......       ..    ...         XXXXXXXXX",
"XXXXXX   ......       ..    ...         XXXXXXXXX",
"   XXXXXXXXX...XXXXXXXXXX      XXXXXXXXX         ",
"   XXXXXXXXX...XXXXXXXXXX      XXXXXXXXX         ",
"   XXXXXXXXX...XXXXXXXXXX      XXXXXXXXX         ",
"XXX.....................X      ...............XXX",
"XXX.....................X      ...............XXX",
"XXX.....................X      ...............XXX",
"XXX               XXX ............   XXXXXX      ",
"XXX               XXX ............   XXXXXX      ",
"XXX               XXX ............   XXXXXX      ",
"XXXXXXXXX................XXXXXX      XXX......XXX",
"XXXXXXXXX................XXXXXX      XXX......XXX",
"XXXXXXXXX................XXXXXX      XXX......XXX",
"............         XXXXXXXXXXXXX.........XXXXXX",
"............         XXXXXXXXXXXXX.........XXXXXX",
"............         XXXXXXXXXXXXX.........XXXXXX"
};
